<svg width="24" height="25" viewBox="0 0 24 25" fill="none" xmlns="http://www.w3.org/2000/svg">
<path d="M10.5966 6.03482L10.5491 6.12284L10.5966 6.03482L5.70893 3.39983H15.3987C15.8778 3.39983 16.2559 3.76233 16.2559 4.19361V7.10425C16.2559 7.52687 16.6207 7.85795 17.0559 7.85795C17.4912 7.85795 17.856 7.52687 17.856 7.10425V4.19361C17.856 2.91832 16.7472 1.89243 15.3987 1.89243H4.3573C3.00883 1.89243 1.9 2.91832 1.9 4.19361V18.0012C1.9 18.8481 2.35192 19.5754 3.13119 19.9956L8.14437 22.6982C8.53317 22.9078 8.95144 23.0131 9.37048 23.013C9.78944 23.013 10.2078 22.9077 10.5965 22.6982C11.3758 22.2781 11.8277 21.5507 11.8277 20.7039V19.6484H15.3986C16.7472 19.6484 17.8559 18.6225 17.8559 17.3472V14.7954C17.856 14.3728 17.4912 14.0417 17.0559 14.0417C16.6207 14.0417 16.2559 14.3728 16.2559 14.7954V17.3472C16.2559 17.7785 15.8778 18.141 15.3987 18.141H11.8278V8.02911C11.8278 7.18231 11.3758 6.45497 10.5966 6.03482ZM3.50013 4.19361C3.50013 4.11429 3.51274 4.03768 3.53625 3.96536L9.8016 7.34311L9.8016 7.34312C10.08 7.4932 10.2276 7.73553 10.2276 8.02911V20.7039C10.2276 20.9975 10.08 21.2398 9.8016 21.3899C9.52262 21.5403 9.21836 21.5403 8.93938 21.3899L3.92617 18.6873C3.64774 18.5372 3.50013 18.2949 3.50013 18.0012V4.19361ZM21.795 10.3082L21.8632 10.2351L19.5884 8.11088C19.2766 7.81968 18.7736 7.81968 18.4618 8.11086C18.1461 8.40567 18.1461 8.88671 18.4618 9.1815L19.3562 10.0167H13.178C12.7428 10.0167 12.378 10.3478 12.378 10.7704C12.378 11.193 12.7428 11.5241 13.178 11.5241H19.3563L18.4618 12.3593C18.1461 12.6541 18.1461 13.1352 18.4618 13.4299C18.6184 13.5762 18.8226 13.6484 19.0251 13.6484C19.2276 13.6484 19.4317 13.5762 19.5883 13.4299L21.8632 11.3057C22.1789 11.0109 22.1789 10.5299 21.8632 10.2351L21.795 10.3082Z" fill="#2B2C34" stroke="#2B2C34" stroke-width="0.2"/>
</svg>
